<?xml version="1.0" encoding="UTF-8" standalone="no"?>
<svg
        xmlns:dc="http://purl.org/dc/elements/1.1/"
        xmlns:cc="http://creativecommons.org/ns#"
        xmlns:rdf="http://www.w3.org/1999/02/22-rdf-syntax-ns#"
        xmlns:svg="http://www.w3.org/2000/svg"
        xmlns="http://www.w3.org/2000/svg"
        xmlns:xlink="http://www.w3.org/1999/xlink"
        xmlns:sodipodi="http://sodipodi.sourceforge.net/DTD/sodipodi-0.dtd"
        xmlns:inkscape="http://www.inkscape.org/namespaces/inkscape"
        id="svg2"
        sodipodi:docname="cityscape_deep_night.svg"
        viewBox="0 0 1052.4 744.09"
        version="1.1"
        inkscape:version="0.92.4 (5da689c313, 2019-01-14)">
    <defs
            id="defs4">
        <linearGradient
                id="linearGradient3775"
                inkscape:collect="always">
            <stop
                    id="stop3777"
                    style="stop-color:#80e5ff"
                    offset="0" />
            <stop
                    id="stop3779"
                    style="stop-color:#80e5ff;stop-opacity:0"
                    offset="1" />
        </linearGradient>
        <linearGradient
                id="linearGradient3763"
                y2="1015.5"
                gradientUnits="userSpaceOnUse"
                x2="722.82"
                y1="885.73"
                x1="735.48"
                inkscape:collect="always">
            <stop
                    id="stop3759"
                    style="stop-color:#80e5ff"
                    offset="0" />
            <stop
                    id="stop3761"
                    style="stop-color:#80e5ff;stop-opacity:0"
                    offset="1" />
        </linearGradient>
        <linearGradient
                id="linearGradient3771"
                y2="1048.3"
                gradientUnits="userSpaceOnUse"
                x2="376.5"
                y1="925.06"
                x1="381.92"
                inkscape:collect="always">
            <stop
                    id="stop3767"
                    style="stop-color:#80e5ff"
                    offset="0" />
            <stop
                    id="stop3769"
                    style="stop-color:#80e5ff;stop-opacity:0"
                    offset="1" />
        </linearGradient>
        <linearGradient
                id="linearGradient3781"
                y2="877.56"
                xlink:href="#linearGradient3775"
                gradientUnits="userSpaceOnUse"
                x2="203.78"
                gradientTransform="matrix(.76812 0 0 .61111 65.426 15.647)"
                y1="510.33"
                x1="208.77"
                inkscape:collect="always" />
        <linearGradient
                id="linearGradient3785"
                y2="810.67"
                xlink:href="#linearGradient3775"
                gradientUnits="userSpaceOnUse"
                x2="219.79"
                gradientTransform="matrix(.37681 0 0 .39744 226.23 241.08)"
                y1="510.33"
                x1="208.77"
                inkscape:collect="always" />
        <linearGradient
                id="linearGradient3824"
                y2="992.77"
                gradientUnits="userSpaceOnUse"
                x2="708.31"
                gradientTransform="translate(18.961 -46.047)"
                y1="608.14"
                x1="712.37"
                inkscape:collect="always">
            <stop
                    id="stop3820"
                    style="stop-color:#80e5ff"
                    offset="0" />
            <stop
                    id="stop3822"
                    style="stop-color:#80e5ff;stop-opacity:0"
                    offset="1" />
        </linearGradient>
        <linearGradient
                id="linearGradient4119"
                y2="1015.6"
                gradientUnits="userSpaceOnUse"
                x2="1669.4"
                gradientTransform="matrix(1.4496 0 0 2.4985 -1834.9 -1879.4)"
                y1="885.21"
                x1="1611.4"
                inkscape:collect="always">
            <stop
                    id="stop3830"
                    style="stop-color:#80e5ff"
                    offset="0" />
            <stop
                    id="stop3832"
                    style="stop-color:#80e5ff;stop-opacity:0"
                    offset="1" />
        </linearGradient>
    </defs>
    <sodipodi:namedview
            id="base"
            bordercolor="#666666"
            inkscape:pageshadow="2"
            inkscape:window-y="-8"
            pagecolor="#ffffff"
            inkscape:window-height="1017"
            inkscape:window-maximized="1"
            inkscape:zoom="1"
            inkscape:window-x="-8"
            showgrid="false"
            borderopacity="1.0"
            inkscape:current-layer="layer1"
            inkscape:cx="501.82176"
            inkscape:cy="463.60225"
            inkscape:snap-global="false"
            inkscape:window-width="1920"
            inkscape:pageopacity="0.0"
            inkscape:document-units="px" />
    <g
            id="layer1"
            inkscape:label="Layer 1"
            inkscape:groupmode="layer"
            transform="translate(0 -308.27)">
        <rect
                id="rect4121"
                style="fill-rule:evenodd;stroke-width:0;fill:#000000"
                height="753.56"
                width="1059.1"
                y="305.57"
                x="-2.7086" />
        <path
                id="rect3773"
                style="fill-rule:evenodd;fill:url(#linearGradient3781)"
                d="m174.28 359.12v273.88h101.53v-273.88h-101.53zm2.94 7.63h5.16v5.19h-5.16v-5.19zm9.97 0h5.15v5.19h-5.15v-5.19zm9.93 0h5.19v5.19h-5.19v-5.19zm9.97 0h5.16v5.19h-5.16v-5.19zm26.57 0h5.15v5.19h-5.15v-5.19zm9.93 0h5.19v5.19h-5.19v-5.19zm9.97 0h5.16v5.19h-5.16v-5.19zm-76.34 19.94h5.16v5.15h-5.16v-5.15zm9.97 0h5.15v5.15h-5.15v-5.15zm9.93 0h5.19v5.15h-5.19v-5.15zm9.97 0h5.16v5.15h-5.16v-5.15zm19.91 0h5.19v5.15h-5.19v-5.15zm9.97 0h5.15v5.15h-5.15v-5.15zm9.97 0h5.15v5.15h-5.15v-5.15zm9.94 0h5.15v5.15h-5.15v-5.15zm9.96 0h5.16v5.15h-5.16v-5.15zm-89.62 19.9h5.16v5.16h-5.16v-5.16zm9.97 0h5.15v5.16h-5.15v-5.16zm9.93 0h5.19v5.16h-5.19v-5.16zm9.97 0h5.16v5.16h-5.16v-5.16zm26.57 0h5.15v5.16h-5.15v-5.16zm9.93 0h5.19v5.16h-5.19v-5.16zm9.97 0h5.16v5.16h-5.16v-5.16zm-76.34 19.91h5.16v5.16h-5.16v-5.16zm9.97 0h5.15v5.16h-5.15v-5.16zm9.93 0h5.19v5.16h-5.19v-5.16zm9.97 0h5.16v5.16h-5.16v-5.16zm19.91 0h5.19v5.16h-5.19v-5.16zm9.97 0h5.15v5.16h-5.15v-5.16zm9.97 0h5.15v5.16h-5.15v-5.16zm9.94 0h5.15v5.16h-5.15v-5.16zm9.96 0h5.16v5.16h-5.16v-5.16zm-89.62 19.91h5.16v5.18h-5.16v-5.18zm9.97 0h5.15v5.18h-5.15v-5.18zm9.93 0h5.19v5.18h-5.19v-5.18zm9.97 0h5.16v5.18h-5.16v-5.18zm26.57 0h5.15v5.18h-5.15v-5.18zm9.93 0h5.19v5.18h-5.19v-5.18zm9.97 0h5.16v5.18h-5.16v-5.18zm-76.34 19.93h5.16v5.16h-5.16v-5.16zm9.97 0h5.15v5.16h-5.15v-5.16zm9.93 0h5.19v5.16h-5.19v-5.16zm9.97 0h5.16v5.16h-5.16v-5.16zm19.91 0h5.19v5.16h-5.19v-5.16zm9.97 0h5.15v5.16h-5.15v-5.16zm9.97 0h5.15v5.16h-5.15v-5.16zm9.94 0h5.15v5.16h-5.15v-5.16zm9.96 0h5.16v5.16h-5.16v-5.16zm-89.62 19.91h5.16v5.16h-5.16v-5.16zm9.97 0h5.15v5.16h-5.15v-5.16zm9.93 0h5.19v5.16h-5.19v-5.16zm9.97 0h5.16v5.16h-5.16v-5.16zm26.57 0h5.15v5.16h-5.15v-5.16zm9.93 0h5.19v5.16h-5.19v-5.16zm9.97 0h5.16v5.16h-5.16v-5.16zm-76.34 19.91h5.16v5.18h-5.16v-5.18zm9.97 0h5.15v5.18h-5.15v-5.18zm9.93 0h5.19v5.18h-5.19v-5.18zm9.97 0h5.16v5.18h-5.16v-5.18zm19.91 0h5.19v5.18h-5.19v-5.18zm9.97 0h5.15v5.18h-5.15v-5.18zm9.97 0h5.15v5.18h-5.15v-5.18zm9.94 0h5.15v5.18h-5.15v-5.18zm9.96 0h5.16v5.18h-5.16v-5.18z"
                transform="translate(0 308.27)" />
        <path
                id="path3816"
                style="fill-rule:evenodd;stroke-width:0;fill:url(#linearGradient3824)"
                inkscape:connector-curvature="0"
                d="m660.87 878.68-0.00043-49.319 8.9702 0.37188c4.9858 0.20665 9.4224-0.0806 9.9887-0.64686 0.56756-0.56746 0.70412-2.6979 0.30959-4.8082-0.67281-3.5849-0.9295-3.7892-4.77-3.7892-3.3632 0-4.059-0.35794-4.059-2.0876 0-1.7396 0.69584-2.0875 4.1754-2.0875 4.8192 0 4.4024 1.6392 4.6426-18.261 0.12584-10.561 0.41427-12.571 1.8181-12.841 2.1258-0.40938 2.8866-4.4184 2.1654-11.406-0.37924-3.6676-1.0419-5.5053-1.9876-5.5053-0.98713 0-1.42-1.4324-1.42-4.697 0-3.4793 0.4054-4.697 1.566-4.697 1.1306 0 1.5656-1.1597 1.5656-4.1751s-0.43587-4.1751-1.5656-4.1751c-0.88717 0-1.6253-1.0179-1.7034-2.3485-0.0744-1.2917-0.0658-29.591 0.0443-62.888 0.0872-33.297 0.14829-61.596 0.14014-62.888 0-1.6598 0.59073-2.3485 2.066-2.3485 1.726 0 2.0875-0.69586 2.0875-4.0188v-4.0188l9.5544-0.6782c5.2548-0.3732 11.831-0.67816 14.613-0.67816 3.6082 0 5.0582-0.41331 5.0582-1.4422 0-1.056 2.3761-1.6401 8.8726-2.1812 7.7792-0.64803 8.8721-0.98465 8.8721-2.7329 0-1.8062 0.83441-1.9939 8.8721-1.9939h8.8721v4.0418c0 3.9082 0.14014 4.0638 4.1749 4.7093 3.2472 0.51926 4.1754 1.1289 4.1754 2.7429 0 1.7252-0.70413 2.0752-4.1754 2.0752-3.479 0-4.1749-0.3479-4.1749-2.0876 0-1.3917-0.69583-2.0876-2.0879-2.0876-1.3915 0-2.0874-0.69586-2.0874-2.0876 0-1.7292-0.69583-2.0876-4.0533-2.0876-3.1756 0-4.1714 0.4521-4.5992 2.0876-0.43157 1.6587-1.4238 2.0876-4.8188 2.0876-3.1024 0-4.273 0.429-4.273 1.5657 0 1.1703-1.2517 1.5686-4.9579 1.5772-8.638 0.0217-12.786 1.0765-12.786 3.2564 0 1.8501 1.2683 1.951 24.529 1.951h24.529v104.9 104.9h6.2628c5.9842 0 6.2624-0.11597 6.2624-2.6094 0-2.3408 0.42299-2.6094 4.1025-2.6094 3.46 0 4.1548 0.36795 4.4361 2.3485 0.21794 1.5414 1.0512 2.3485 2.4214 2.3485s2.202-0.80705 2.421-2.3485c0.27899-1.9806 0.97611-2.3485 4.436-2.3485h4.1027v10.96c0 10.264-0.13013 10.96-2.0875 10.96-1.7379 0-2.1114 0.74326-2.2296 4.4361-0.0786 2.4398-0.34434 3.3792-0.59459 2.0875-0.24853-1.2916-1.1244-2.3485-1.9454-2.3485-1.1291 0-1.4932 1.527-1.4932 6.2627 0 5.5669 0.23108 6.2627 2.0875 6.2627 1.6162 0 2.0556 0.64846 1.9456 2.8704-0.12154 2.4611-0.20477 2.5355-0.59459 0.52191-0.80737-4.1921-3.4386-2.7944-3.4386 1.8266 0 3.4793 0.34877 4.1751 2.0875 4.1751 1.3915 0 2.0878 0.69587 2.0878 2.0875 0 1.3917-0.69627 2.0876-2.0878 2.0876-1.345 0-2.0875 0.69587-2.0875 1.9571 0 1.746 3.456 3.2618 7.4368 3.2618 0.50236 0 0.91348-3.0531 0.91348-6.7846 0-6.0887 0.21364-6.7846 2.0874-6.7846 1.9139 0 2.0879 0.69586 2.0879 8.3502 0 7.6544-0.17446 8.3503-2.0879 8.3503-1.7783 0-2.0874 0.69586-2.0874 4.697s-0.30959 4.697-2.0875 4.697c-1.3917 0-2.0875 0.69587-2.0875 2.0876 0 1.8556 0.69583 2.0875 6.2624 2.0875 5.567 0 6.2628-0.23194 6.2628-2.0875 0-1.3917 0.69584-2.0876 2.0875-2.0876s2.0879 0.69587 2.0879 2.0876c0 1.7783 0.6957 2.0875 4.6967 2.0875 4.0014 0 4.6972-0.30911 4.6972-2.0875 0-1.1597 0.69583-2.0876 1.5656-2.0876 1.3263 0 1.5656 2.5515 1.5656 16.701v16.701h-78.805-78.806v-49.319zm97.072-1.6735c0-25.579 0.71886-34.598 2.7579-34.598 0.95752 0 1.417-1.3545 1.417-4.1751 0-2.8467-0.45646-4.1751-1.4353-4.1751-0.78907 0-1.7286-1.4678-2.0874-3.2618-0.3575-1.794-0.65222-48.999-0.65222-104.9v-101.64h-4.1754-4.1749v102.81c0 102.12 0 102.81 2.0875 102.81 1.1597 0 2.0874 0.69587 2.0874 1.5657 0 0.86982-0.92763 1.5657-2.0874 1.5657-2.0435 0-2.0875 0.69587-2.0875 32.879v32.879h4.1749 4.1754v-21.766zm26.094 17.591c0-3.4369 0.35749-4.1751 2.026-4.1751 2.717 0 3.4852-1.5113 2.6655-5.2444-0.73287-3.3362-3.5688-4.2988-3.7689-1.2793-0.11297 1.7397-0.14386 1.7397-0.59817 0-0.26169-1.0046-1.1476-1.8266-1.9667-1.8266-1.0616 0-1.4889-1.3045-1.4889-4.5439 0-2.4992-0.30087-7.431-0.67096-10.96-0.55541-5.3152-1.0031-6.4158-2.6093-6.4158-1.7374 0-1.9388-0.92266-1.9388-8.8722v-8.8722h4.1749c3.2751 0 4.1784-0.39369 4.1897-1.8266 0-1.0046 0.28342-2.8242 0.60903-4.0435 0.5271-1.9639 0.0443-2.3003-4.2764-2.9474-2.6795-0.40197-6.7111-0.41984-8.9594-0.0392-3.9408 0.66573-4.0882 0.83804-4.0882 4.774 0 3.3875 0.3575 4.0834 2.0875 4.0834 1.9118 0 2.0874 0.69585 2.0874 8.2585v8.2585l-4.1749 0.70542-4.1753 0.70536v6.1709c0 5.4751 0.23538 6.171 2.0879 6.171 1.9762 0 2.0874 0.69586 2.0874 13.047v13.047h8.3503 8.3502v-4.1751zm4.175 2.0876c0-1.1597-0.69584-2.0876-1.5657-2.0876-0.86973 0-1.5656 0.92786-1.5656 2.0876s0.69583 2.0875 1.5656 2.0875c0.86986 0 1.5657-0.92779 1.5657-2.0875zm-82.45-278.69c0-1.3917-0.6957-2.0876-2.0874-2.0876s-2.0875 0.69587-2.0875 2.0876 0.69583 2.0876 2.0875 2.0876 2.0874-0.69586 2.0874-2.0876z" />
        <path
                id="path2985"
                sodipodi:nodetypes="ccc"
                style="stroke-width:0;fill:url(#linearGradient3771)"
                inkscape:connector-curvature="0"
                d="m0.025054 1052.3c1.2384-49.8-4.2302-112.7 1.8604-118.57 153.16-147.63 487.05-24.34 746.99 118.67" />
        <path
                id="rect3798"
                style="block-progression:tb;text-indent:0;color:#000000;text-transform:none;fill:url(#linearGradient4119)"
                d="m547.91 378.28l-0.97 79.97-10.63 16.5h-15.47-0.72v1.25 214.25h55.6v-214.25-1.25h-0.72-15.69l-10.9-16.47-0.5-80zm0.5 80.25l8.65 16.22h-8.56l-0.09-16.22zm-1.5 0.22l-0.19 16h-7.28l7.47-16zm-21.94 23.09h3.47v3.04h-3.47v-3.04zm6.65 0h3.47v3.04h-3.47v-3.04zm6.66 0h3.44v3.04h-3.44v-3.04zm16.66 0h3.44v3.04h-3.44v-3.04zm6.65 0h3.44v3.04h-3.44v-3.04zm6.66 0h3.44v3.04h-3.44v-3.04zm-43.28 11.6h3.47v3h-3.47v-3zm6.65 0h3.47v3h-3.47v-3zm6.66 0h3.44v3h-3.44v-3zm16.66 0h3.44v3h-3.44v-3zm6.65 0h3.44v3h-3.44v-3zm6.66 0h3.44v3h-3.44v-3zm-43.28 11.56h3.47v3h-3.47v-3zm6.65 0h3.47v3h-3.47v-3zm6.66 0h3.44v3h-3.44v-3zm16.66 0h3.44v3h-3.44v-3zm6.65 0h3.44v3h-3.44v-3zm6.66 0h3.44v3h-3.44v-3zm-43.28 11.56h3.47v3h-3.47v-3zm6.65 0h3.47v3h-3.47v-3zm6.66 0h3.44v3h-3.44v-3zm16.66 0h3.44v3h-3.44v-3zm6.65 0h3.44v3h-3.44v-3zm6.66 0h3.44v3h-3.44v-3zm-43.28 11.6h3.47v3h-3.47v-3zm6.65 0h3.47v3h-3.47v-3zm6.66 0h3.44v3h-3.44v-3zm16.66 0h3.44v3h-3.44v-3zm6.65 0h3.44v3h-3.44v-3zm6.66 0h3.44v3h-3.44v-3zm-43.28 11.56h3.47v3h-3.47v-3zm6.65 0h3.47v3h-3.47v-3zm6.66 0h3.44v3h-3.44v-3zm16.66 0h3.44v3h-3.44v-3zm6.65 0h3.44v3h-3.44v-3zm6.66 0h3.44v3h-3.44v-3zm-43.28 11.56h3.47v3h-3.47v-3zm6.65 0h3.47v3h-3.47v-3zm6.66 0h3.44v3h-3.44v-3zm16.66 0h3.44v3h-3.44v-3zm6.65 0h3.44v3h-3.44v-3zm6.66 0h3.44v3h-3.44v-3zm-43.28 11.56h3.47v3.04h-3.47v-3.04zm6.65 0h3.47v3.04h-3.47v-3.04zm6.66 0h3.44v3.04h-3.44v-3.04zm16.66 0h3.44v3.04h-3.44v-3.04zm6.65 0h3.44v3.04h-3.44v-3.04zm6.66 0h3.44v3.04h-3.44v-3.04zm-43.53 11.07h3.47v3.03h-3.47v-3.03zm6.66 0h3.46v3.03h-3.46v-3.03zm6.65 0h3.44v3.03h-3.44v-3.03zm16.66 0h3.43v3.03h-3.43v-3.03zm6.65 0h3.44v3.03h-3.44v-3.03zm6.66 0h3.44v3.03h-3.44v-3.03zm-43.28 11.59h3.47v3h-3.47v-3zm6.66 0h3.46v3h-3.46v-3zm6.65 0h3.44v3h-3.44v-3zm16.66 0h3.43v3h-3.43v-3zm6.65 0h3.44v3h-3.44v-3zm6.66 0h3.44v3h-3.44v-3zm-43.28 11.56h3.47v3h-3.47v-3zm6.66 0h3.46v3h-3.46v-3zm6.65 0h3.44v3h-3.44v-3zm16.66 0h3.43v3h-3.43v-3zm6.65 0h3.44v3h-3.44v-3zm6.66 0h3.44v3h-3.44v-3zm-43.28 11.56h3.47v3h-3.47v-3zm6.66 0h3.46v3h-3.46v-3zm6.65 0h3.44v3h-3.44v-3zm16.66 0h3.43v3h-3.43v-3zm6.65 0h3.44v3h-3.44v-3zm6.66 0h3.44v3h-3.44v-3zm-43.28 11.6h3.47v3h-3.47v-3zm6.66 0h3.46v3h-3.46v-3zm6.65 0h3.44v3h-3.44v-3zm16.66 0h3.43v3h-3.43v-3zm6.65 0h3.44v3h-3.44v-3zm6.66 0h3.44v3h-3.44v-3zm-43.28 11.56h3.47v3h-3.47v-3zm6.66 0h3.46v3h-3.46v-3zm6.65 0h3.44v3h-3.44v-3zm16.66 0h3.43v3h-3.43v-3zm6.65 0h3.44v3h-3.44v-3zm6.66 0h3.44v3h-3.44v-3zm-43.28 11.56h3.47v3h-3.47v-3zm6.66 0h3.46v3h-3.46v-3zm6.65 0h3.44v3h-3.44v-3zm16.66 0h3.43v3h-3.43v-3zm6.65 0h3.44v3h-3.44v-3zm6.66 0h3.44v3h-3.44v-3zm-43.28 11.57h3.47v3.03h-3.47v-3.03zm6.66 0h3.46v3.03h-3.46v-3.03zm6.65 0h3.44v3.03h-3.44v-3.03zm16.66 0h3.43v3.03h-3.43v-3.03zm6.65 0h3.44v3.03h-3.44v-3.03zm6.66 0h3.44v3.03h-3.44v-3.03z"
                transform="translate(0 308.27)" />
        <path
                id="path3755"
                d="m1056.2 1056.2c-1.2384-49.864 0.3995-45.7-1.8605-70.723-183.66-222.94-498.08-20.57-746.99 118.62"
                sodipodi:nodetypes="ccc"
                style="stroke-width:0;fill:url(#linearGradient3763)"
                inkscape:connector-curvature="0" />
        <path
                id="rect3783"
                style="fill-rule:evenodd;fill:url(#linearGradient3785)"
                d="m279.62 464.47v178.12h49.82v-178.12h-49.82zm7.85 6.84h3.47v3.03h-3.47v-3.03zm6.65 0h3.47v3.03h-3.47v-3.03zm6.66 0h3.44v3.03h-3.44v-3.03zm6.66 0h3.44v3.03h-3.44v-3.03zm6.65 0h3.44v3.03h-3.44v-3.03zm6.66 0h3.44v3.03h-3.44v-3.03zm-33.28 11.6h3.47v3h-3.47v-3zm6.65 0h3.47v3h-3.47v-3zm6.66 0h3.44v3h-3.44v-3zm6.66 0h3.44v3h-3.44v-3zm6.65 0h3.44v3h-3.44v-3zm6.66 0h3.44v3h-3.44v-3zm-33.28 11.56h3.47v3h-3.47v-3zm6.65 0h3.47v3h-3.47v-3zm6.66 0h3.44v3h-3.44v-3zm6.66 0h3.44v3h-3.44v-3zm6.65 0h3.44v3h-3.44v-3zm6.66 0h3.44v3h-3.44v-3zm-33.28 11.56h3.47v3h-3.47v-3zm6.65 0h3.47v3h-3.47v-3zm6.66 0h3.44v3h-3.44v-3zm6.66 0h3.44v3h-3.44v-3zm6.65 0h3.44v3h-3.44v-3zm6.66 0h3.44v3h-3.44v-3zm-33.28 11.59h3.47v3h-3.47v-3zm6.65 0h3.47v3h-3.47v-3zm6.66 0h3.44v3h-3.44v-3zm6.66 0h3.44v3h-3.44v-3zm6.65 0h3.44v3h-3.44v-3zm6.66 0h3.44v3h-3.44v-3zm-33.28 11.57h3.47v3h-3.47v-3zm6.65 0h3.47v3h-3.47v-3zm6.66 0h3.44v3h-3.44v-3zm6.66 0h3.44v3h-3.44v-3zm6.65 0h3.44v3h-3.44v-3zm6.66 0h3.44v3h-3.44v-3zm-33.28 11.56h3.47v3h-3.47v-3zm6.65 0h3.47v3h-3.47v-3zm6.66 0h3.44v3h-3.44v-3zm6.66 0h3.44v3h-3.44v-3zm6.65 0h3.44v3h-3.44v-3zm6.66 0h3.44v3h-3.44v-3zm-33.28 11.56h3.47v3.03h-3.47v-3.03zm6.65 0h3.47v3.03h-3.47v-3.03zm6.66 0h3.44v3.03h-3.44v-3.03zm6.66 0h3.44v3.03h-3.44v-3.03zm6.65 0h3.44v3.03h-3.44v-3.03zm6.66 0h3.44v3.03h-3.44v-3.03z"
                transform="translate(0 308.27)" />
        <path
                id="path4135"
                style="fill-rule:evenodd;stroke-width:0;fill:#ffffff"
                sodipodi:type="star"
                sodipodi:sides="5"
                inkscape:transform-center-x="2.651824"
                sodipodi:r1="35.755138"
                sodipodi:r2="11.232615"
                sodipodi:arg1="1.0471976"
                sodipodi:arg2="1.7379386"
                transform="matrix(.29666 0 0 .29666 93.905 386.36)"
                inkscape:randomized="0"
                sodipodi:cy="195.5939"
                sodipodi:cx="121.88902"
                inkscape:rounded="0"
                inkscape:flatsided="false"
                d="m139.77 226.56-19.746-19.889-22.056 15.495 12.813-24.926-21.553-16.188 27.665 4.4838 8.736-25.5 4.2848 27.697 26.952 0.42842-25.017 12.634z" />
        <path
                id="path4137"
                sodipodi:r2="11.232615"
                style="fill-rule:evenodd;stroke-width:0;fill:#ffffff"
                sodipodi:type="star"
                d="m139.77 226.56-19.746-19.889-22.056 15.495 12.813-24.926-21.553-16.188 27.665 4.4838 8.736-25.5 4.2848 27.697 26.952 0.42842-25.017 12.634z"
                sodipodi:r1="35.755138"
                inkscape:transform-center-x="0.0034764008"
                inkscape:transform-center-y="-1.6990542"
                transform="matrix(-.0048703 .19481 -.19481 -.0048703 905.11 377.62)"
                sodipodi:arg2="1.7379386"
                sodipodi:arg1="1.0471976"
                inkscape:randomized="0"
                sodipodi:cy="195.5939"
                sodipodi:cx="121.88902"
                inkscape:rounded="0"
                inkscape:flatsided="false"
                sodipodi:sides="5" />
        <path
                id="path4139"
                style="fill-rule:evenodd;stroke-width:0;fill:#ffffff"
                sodipodi:type="star"
                sodipodi:sides="5"
                inkscape:transform-center-x="0.0034764008"
                sodipodi:r1="35.755138"
                sodipodi:r2="11.232615"
                inkscape:transform-center-y="-1.6990542"
                sodipodi:arg1="1.0471976"
                sodipodi:arg2="1.7379386"
                transform="matrix(-.0048703 .19481 -.19481 -.0048703 366.19 368.14)"
                inkscape:randomized="0"
                sodipodi:cy="195.5939"
                sodipodi:cx="121.88902"
                inkscape:rounded="0"
                inkscape:flatsided="false"
                d="m139.77 226.56-19.746-19.889-22.056 15.495 12.813-24.926-21.553-16.188 27.665 4.4838 8.736-25.5 4.2848 27.697 26.952 0.42842-25.017 12.634z" />
        <path
                id="path4141"
                sodipodi:r2="11.232615"
                style="fill-rule:evenodd;stroke-width:0;fill:#ffffff"
                sodipodi:type="star"
                d="m139.77 226.56-19.746-19.889-22.056 15.495 12.813-24.926-21.553-16.188 27.665 4.4838 8.736-25.5 4.2848 27.697 26.952 0.42842-25.017 12.634z"
                sodipodi:r1="35.755138"
                inkscape:transform-center-x="1.65094"
                transform="matrix(.18469 0 0 .18469 395.07 330.46)"
                sodipodi:arg2="1.7379386"
                sodipodi:arg1="1.0471976"
                inkscape:randomized="0"
                sodipodi:cy="195.5939"
                sodipodi:cx="121.88902"
                inkscape:rounded="0"
                inkscape:flatsided="false"
                sodipodi:sides="5" />
        <path
                id="path4143"
                sodipodi:r2="11.232615"
                style="fill-rule:evenodd;stroke-width:0;fill:#ffffff"
                sodipodi:type="star"
                d="m139.77 226.56-19.746-19.889-22.056 15.495 12.813-24.926-21.553-16.188 27.665 4.4838 8.736-25.5 4.2848 27.697 26.952 0.42842-25.017 12.634z"
                sodipodi:r1="35.755138"
                inkscape:transform-center-x="2.1638845"
                inkscape:transform-center-y="-3.0268403"
                transform="matrix(.13484 .25412 -.25412 .13484 981.45 291.54)"
                sodipodi:arg2="1.7379386"
                sodipodi:arg1="1.0471976"
                inkscape:randomized="0"
                sodipodi:cy="195.5939"
                sodipodi:cx="121.88902"
                inkscape:rounded="0"
                inkscape:flatsided="false"
                sodipodi:sides="5" />
        <path
                id="path4145"
                style="fill-rule:evenodd;stroke-width:0;fill:#ffffff"
                sodipodi:type="star"
                sodipodi:sides="5"
                inkscape:transform-center-x="-2.0701961"
                sodipodi:r1="35.755138"
                sodipodi:r2="11.232615"
                inkscape:transform-center-y="-1.3318851"
                sodipodi:arg1="1.0471976"
                sodipodi:arg2="1.7379386"
                transform="matrix(-.16909 .084376 -.084376 -.16909 546.65 470.1)"
                inkscape:randomized="0"
                sodipodi:cy="195.5939"
                sodipodi:cx="121.88902"
                inkscape:rounded="0"
                inkscape:flatsided="false"
                d="m139.77 226.56-19.746-19.889-22.056 15.495 12.813-24.926-21.553-16.188 27.665 4.4838 8.736-25.5 4.2848 27.697 26.952 0.42842-25.017 12.634z" />
        <path
                id="path4147"
                sodipodi:r2="11.232615"
                style="fill-rule:evenodd;stroke-width:0;fill:#ffffff"
                sodipodi:type="star"
                d="m139.77 226.56-19.746-19.889-22.056 15.495 12.813-24.926-21.553-16.188 27.665 4.4838 8.736-25.5 4.2848 27.697 26.952 0.42842-25.017 12.634z"
                sodipodi:r1="35.755138"
                inkscape:transform-center-x="-2.0701911"
                inkscape:transform-center-y="-1.3318897"
                transform="matrix(-.16909 .084376 -.084376 -.16909 625 365.27)"
                sodipodi:arg2="1.7379386"
                sodipodi:arg1="1.0471976"
                inkscape:randomized="0"
                sodipodi:cy="195.5939"
                sodipodi:cx="121.88902"
                inkscape:rounded="0"
                inkscape:flatsided="false"
                sodipodi:sides="5" />
        <path
                id="path4149"
                style="fill-rule:evenodd;stroke-width:0;fill:#ffffff"
                sodipodi:type="star"
                sodipodi:sides="5"
                inkscape:transform-center-x="1.347161"
                sodipodi:r1="35.755138"
                sodipodi:r2="11.232615"
                inkscape:transform-center-y="-1.8844137"
                sodipodi:arg1="1.0471976"
                sodipodi:arg2="1.7379386"
                transform="matrix(.083949 .15821 -.15821 .083949 774.66 353.03)"
                inkscape:randomized="0"
                sodipodi:cy="195.5939"
                sodipodi:cx="121.88902"
                inkscape:rounded="0"
                inkscape:flatsided="false"
                d="m139.77 226.56-19.746-19.889-22.056 15.495 12.813-24.926-21.553-16.188 27.665 4.4838 8.736-25.5 4.2848 27.697 26.952 0.42842-25.017 12.634z" />
        <path
                id="path4151"
                sodipodi:r2="11.232615"
                style="fill-rule:evenodd;stroke-width:0;fill:#ffffff"
                sodipodi:type="star"
                d="m139.77 226.56-19.746-19.889-22.056 15.495 12.813-24.926-21.553-16.188 27.665 4.4838 8.736-25.5 4.2848 27.697 26.952 0.42842-25.017 12.634z"
                sodipodi:r1="35.755138"
                inkscape:transform-center-x="-2.1789243"
                inkscape:transform-center-y="0.65635918"
                transform="matrix(-.14817 -.12657 .12657 -.14817 925.52 609.78)"
                sodipodi:arg2="1.7379386"
                sodipodi:arg1="1.0471976"
                inkscape:randomized="0"
                sodipodi:cy="195.5939"
                sodipodi:cx="121.88902"
                inkscape:rounded="0"
                inkscape:flatsided="false"
                sodipodi:sides="5" />
        <path
                id="path4153"
                style="fill-rule:evenodd;stroke-width:0;fill:#ffffff"
                sodipodi:type="star"
                sodipodi:sides="5"
                inkscape:transform-center-x="-0.52900712"
                sodipodi:r1="35.755138"
                sodipodi:r2="11.232615"
                inkscape:transform-center-y="-2.0365225"
                sodipodi:arg1="1.0471976"
                sodipodi:arg2="1.7379386"
                transform="matrix(-.11641 .14339 -.14339 -.11641 319.55 491.97)"
                inkscape:randomized="0"
                sodipodi:cy="195.5939"
                sodipodi:cx="121.88902"
                inkscape:rounded="0"
                inkscape:flatsided="false"
                d="m139.77 226.56-19.746-19.889-22.056 15.495 12.813-24.926-21.553-16.188 27.665 4.4838 8.736-25.5 4.2848 27.697 26.952 0.42842-25.017 12.634z" />
        <path
                id="path4155"
                sodipodi:r2="11.232615"
                style="fill-rule:evenodd;stroke-width:0;fill:#ffffff"
                sodipodi:type="star"
                d="m139.77 226.56-19.746-19.889-22.056 15.495 12.813-24.926-21.553-16.188 27.665 4.4838 8.736-25.5 4.2848 27.697 26.952 0.42842-25.017 12.634z"
                sodipodi:r1="35.755138"
                inkscape:transform-center-x="-0.029322579"
                inkscape:transform-center-y="1.3301833"
                transform="matrix(.041073 -.18445 .18445 .041073 355.19 487.96)"
                sodipodi:arg2="1.7379386"
                sodipodi:arg1="1.0471976"
                inkscape:randomized="0"
                sodipodi:cy="195.5939"
                sodipodi:cx="121.88902"
                inkscape:rounded="0"
                inkscape:flatsided="false"
                sodipodi:sides="5" />
        <path
                id="path4157"
                style="fill-rule:evenodd;stroke-width:0;fill:#ffffff"
                sodipodi:type="star"
                sodipodi:sides="5"
                inkscape:transform-center-x="-0.029325833"
                sodipodi:r1="35.755138"
                sodipodi:r2="11.232615"
                inkscape:transform-center-y="1.3301802"
                sodipodi:arg1="1.0471976"
                sodipodi:arg2="1.7379386"
                transform="matrix(.041073 -.18445 .18445 .041073 323.19 361.06)"
                inkscape:randomized="0"
                sodipodi:cy="195.5939"
                sodipodi:cx="121.88902"
                inkscape:rounded="0"
                inkscape:flatsided="false"
                d="m139.77 226.56-19.746-19.889-22.056 15.495 12.813-24.926-21.553-16.188 27.665 4.4838 8.736-25.5 4.2848 27.697 26.952 0.42842-25.017 12.634z" />
        <path
                id="path3840"
                style="fill:#ffffff;fill-rule:evenodd;stroke-width:0"
                inkscape:connector-curvature="0"
                d="m 109.1246,543.53233 c -6.1051,5.6299 -9.9376,13.666 -9.9376,22.625 0,17.016 13.796,30.812 30.813,30.812 3.8271,0 7.4941,-0.69348 10.875,-1.9688 -5.4952,5.0883 -12.858,8.1875 -20.938,8.1875 -17.016,0 -30.812,-13.765 -30.812,-30.781 0,-13.209 8.3212,-24.494 20,-28.875 z" />
    </g>
    <metadata
            id="metadata3798">
        <rdf:RDF>
            <cc:Work>
                <dc:format>image/svg+xml</dc:format>
                <dc:type
                        rdf:resource="http://purl.org/dc/dcmitype/StillImage" />
                <cc:license
                        rdf:resource="http://creativecommons.org/licenses/publicdomain/" />
                <dc:publisher>
                    <cc:Agent
                            rdf:about="http://openclipart.org/">
                        <dc:title>Openclipart</dc:title>
                    </cc:Agent>
                </dc:publisher>
                <dc:title></dc:title>
                <dc:date>2011-05-19T13:00:37</dc:date>
                <dc:description>City Night</dc:description>
                <dc:source>https://openclipart.org/detail/139519/night-cityscape-by-beshra</dc:source>
                <dc:creator>
                    <cc:Agent>
                        <dc:title>beshra</dc:title>
                    </cc:Agent>
                </dc:creator>
                <dc:subject>
                    <rdf:Bag>
                        <rdf:li>Scene</rdf:li>
                    </rdf:Bag>
                </dc:subject>
            </cc:Work>
            <cc:License
                    rdf:about="http://creativecommons.org/licenses/publicdomain/">
                <cc:permits
                        rdf:resource="http://creativecommons.org/ns#Reproduction" />
                <cc:permits
                        rdf:resource="http://creativecommons.org/ns#Distribution" />
                <cc:permits
                        rdf:resource="http://creativecommons.org/ns#DerivativeWorks" />
            </cc:License>
        </rdf:RDF>
    </metadata>
</svg>
